<svg width="430" height="903" viewBox="0 0 430 903" fill="none" xmlns="http://www.w3.org/2000/svg">
<path d="M0 63.7527V7.88693C188.845 15.7739 365.352 5.9152 430 0V70.9824C259.773 78.8693 72.4055 69.4488 0 63.7527Z" fill="#CF3F30"/>
<path d="M35.688 505.032V508.76H39.752V509.96H35.688V513.8H40.232V515H34.232V503.832H40.232V505.032H35.688ZM46.0191 515.144C45.3471 515.144 44.7445 515.032 44.2111 514.808C43.6778 514.573 43.2565 514.253 42.9471 513.848C42.6378 513.432 42.4671 512.957 42.4351 512.424H43.9391C43.9818 512.861 44.1845 513.219 44.5471 513.496C44.9205 513.773 45.4058 513.912 46.0031 513.912C46.5578 513.912 46.9951 513.789 47.3151 513.544C47.6351 513.299 47.7951 512.989 47.7951 512.616C47.7951 512.232 47.6245 511.949 47.2831 511.768C46.9418 511.576 46.4138 511.389 45.6991 511.208C45.0485 511.037 44.5151 510.867 44.0991 510.696C43.6938 510.515 43.3418 510.253 43.0431 509.912C42.7551 509.56 42.6111 509.101 42.6111 508.536C42.6111 508.088 42.7445 507.677 43.0111 507.304C43.2778 506.931 43.6565 506.637 44.1471 506.424C44.6378 506.2 45.1978 506.088 45.8271 506.088C46.7978 506.088 47.5818 506.333 48.1791 506.824C48.7765 507.315 49.0965 507.987 49.1391 508.84H47.6831C47.6511 508.381 47.4645 508.013 47.1231 507.736C46.7925 507.459 46.3445 507.32 45.7791 507.32C45.2565 507.32 44.8405 507.432 44.5311 507.656C44.2218 507.88 44.0671 508.173 44.0671 508.536C44.0671 508.824 44.1578 509.064 44.3391 509.256C44.5311 509.437 44.7658 509.587 45.0431 509.704C45.3311 509.811 45.7258 509.933 46.2271 510.072C46.8565 510.243 47.3685 510.413 47.7631 510.584C48.1578 510.744 48.4938 510.989 48.7711 511.32C49.0591 511.651 49.2085 512.083 49.2191 512.616C49.2191 513.096 49.0858 513.528 48.8191 513.912C48.5525 514.296 48.1738 514.6 47.6831 514.824C47.2031 515.037 46.6485 515.144 46.0191 515.144ZM54.8585 515.144C54.1865 515.144 53.5838 515.032 53.0505 514.808C52.5172 514.573 52.0958 514.253 51.7865 513.848C51.4772 513.432 51.3065 512.957 51.2745 512.424H52.7785C52.8212 512.861 53.0238 513.219 53.3865 513.496C53.7598 513.773 54.2452 513.912 54.8425 513.912C55.3972 513.912 55.8345 513.789 56.1545 513.544C56.4745 513.299 56.6345 512.989 56.6345 512.616C56.6345 512.232 56.4638 511.949 56.1225 511.768C55.7812 511.576 55.2532 511.389 54.5385 511.208C53.8878 511.037 53.3545 510.867 52.9385 510.696C52.5332 510.515 52.1812 510.253 51.8825 509.912C51.5945 509.56 51.4505 509.101 51.4505 508.536C51.4505 508.088 51.5838 507.677 51.8505 507.304C52.1172 506.931 52.4958 506.637 52.9865 506.424C53.4772 506.2 54.0372 506.088 54.6665 506.088C55.6372 506.088 56.4212 506.333 57.0185 506.824C57.6158 507.315 57.9358 507.987 57.9785 508.84H56.5225C56.4905 508.381 56.3038 508.013 55.9625 507.736C55.6318 507.459 55.1838 507.32 54.6185 507.32C54.0958 507.32 53.6798 507.432 53.3705 507.656C53.0612 507.88 52.9065 508.173 52.9065 508.536C52.9065 508.824 52.9972 509.064 53.1785 509.256C53.3705 509.437 53.6052 509.587 53.8825 509.704C54.1705 509.811 54.5652 509.933 55.0665 510.072C55.6958 510.243 56.2078 510.413 56.6025 510.584C56.9972 510.744 57.3332 510.989 57.6105 511.32C57.8985 511.651 58.0478 512.083 58.0585 512.616C58.0585 513.096 57.9252 513.528 57.6585 513.912C57.3918 514.296 57.0132 514.6 56.5225 514.824C56.0425 515.037 55.4878 515.144 54.8585 515.144ZM68.5939 510.28C68.5939 510.557 68.5779 510.851 68.5459 511.16H61.5379C61.5912 512.024 61.8845 512.701 62.4179 513.192C62.9619 513.672 63.6179 513.912 64.3859 513.912C65.0152 513.912 65.5379 513.768 65.9539 513.48C66.3805 513.181 66.6792 512.787 66.8499 512.296H68.4179C68.1832 513.139 67.7139 513.827 67.0099 514.36C66.3059 514.883 65.4312 515.144 64.3859 515.144C63.5539 515.144 62.8072 514.957 62.1459 514.584C61.4952 514.211 60.9832 513.683 60.6099 513C60.2365 512.307 60.0499 511.507 60.0499 510.6C60.0499 509.693 60.2312 508.899 60.5939 508.216C60.9565 507.533 61.4632 507.011 62.1139 506.648C62.7752 506.275 63.5325 506.088 64.3859 506.088C65.2179 506.088 65.9539 506.269 66.5939 506.632C67.2339 506.995 67.7245 507.496 68.0659 508.136C68.4179 508.765 68.5939 509.48 68.5939 510.28ZM67.0899 509.976C67.0899 509.421 66.9672 508.947 66.7219 508.552C66.4765 508.147 66.1405 507.843 65.7139 507.64C65.2979 507.427 64.8339 507.32 64.3219 507.32C63.5859 507.32 62.9565 507.555 62.4339 508.024C61.9219 508.493 61.6285 509.144 61.5539 509.976H67.0899ZM75.2677 506.072C76.3344 506.072 77.1984 506.397 77.8597 507.048C78.5211 507.688 78.8517 508.616 78.8517 509.832V515H77.4117V510.04C77.4117 509.165 77.1931 508.499 76.7557 508.04C76.3184 507.571 75.7211 507.336 74.9637 507.336C74.1957 507.336 73.5824 507.576 73.1237 508.056C72.6757 508.536 72.4517 509.235 72.4517 510.152V515H70.9957V506.232H72.4517V507.48C72.7397 507.032 73.1291 506.685 73.6197 506.44C74.1211 506.195 74.6704 506.072 75.2677 506.072ZM82.7981 513.8H87.1021V515H81.1341V513.8L85.3901 507.416H81.1661V506.232H87.0701V507.416L82.7981 513.8ZM88.9274 510.584C88.9274 509.688 89.1087 508.904 89.4714 508.232C89.834 507.549 90.33 507.021 90.9594 506.648C91.5994 506.275 92.3087 506.088 93.0874 506.088C93.8554 506.088 94.522 506.253 95.0874 506.584C95.6527 506.915 96.074 507.331 96.3514 507.832V506.232H97.8234V515H96.3514V513.368C96.0634 513.88 95.6314 514.307 95.0554 514.648C94.49 514.979 93.8287 515.144 93.0714 515.144C92.2927 515.144 91.5887 514.952 90.9594 514.568C90.33 514.184 89.834 513.645 89.4714 512.952C89.1087 512.259 88.9274 511.469 88.9274 510.584ZM96.3514 510.6C96.3514 509.939 96.218 509.363 95.9514 508.872C95.6847 508.381 95.322 508.008 94.8634 507.752C94.4154 507.485 93.9194 507.352 93.3754 507.352C92.8314 507.352 92.3354 507.48 91.8874 507.736C91.4394 507.992 91.082 508.365 90.8154 508.856C90.5487 509.347 90.4154 509.923 90.4154 510.584C90.4154 511.256 90.5487 511.843 90.8154 512.344C91.082 512.835 91.4394 513.213 91.8874 513.48C92.3354 513.736 92.8314 513.864 93.3754 513.864C93.9194 513.864 94.4154 513.736 94.8634 513.48C95.322 513.213 95.6847 512.835 95.9514 512.344C96.218 511.843 96.3514 511.261 96.3514 510.6ZM41.688 539.112C41.688 540.04 41.368 540.813 40.728 541.432C40.0987 542.04 39.1333 542.344 37.832 542.344H35.688V547H34.232V535.848H37.832C39.0907 535.848 40.0453 536.152 40.696 536.76C41.3573 537.368 41.688 538.152 41.688 539.112ZM37.832 541.144C38.6427 541.144 39.24 540.968 39.624 540.616C40.008 540.264 40.2 539.763 40.2 539.112C40.2 537.736 39.4107 537.048 37.832 537.048H35.688V541.144H37.832ZM47.8016 547.144C46.9803 547.144 46.2336 546.957 45.5616 546.584C44.9003 546.211 44.3776 545.683 43.9936 545C43.6203 544.307 43.4336 543.507 43.4336 542.6C43.4336 541.704 43.6256 540.915 44.0096 540.232C44.4043 539.539 44.9376 539.011 45.6096 538.648C46.2816 538.275 47.0336 538.088 47.8656 538.088C48.6976 538.088 49.4496 538.275 50.1216 538.648C50.7936 539.011 51.3216 539.533 51.7056 540.216C52.1003 540.899 52.2976 541.693 52.2976 542.6C52.2976 543.507 52.095 544.307 51.6896 545C51.295 545.683 50.7563 546.211 50.0736 546.584C49.391 546.957 48.6336 547.144 47.8016 547.144ZM47.8016 545.864C48.3243 545.864 48.815 545.741 49.2736 545.496C49.7323 545.251 50.1003 544.883 50.3776 544.392C50.6656 543.901 50.8096 543.304 50.8096 542.6C50.8096 541.896 50.671 541.299 50.3936 540.808C50.1163 540.317 49.7536 539.955 49.3056 539.72C48.8576 539.475 48.3723 539.352 47.8496 539.352C47.3163 539.352 46.8256 539.475 46.3776 539.72C45.9403 539.955 45.5883 540.317 45.3216 540.808C45.055 541.299 44.9216 541.896 44.9216 542.6C44.9216 543.315 45.0496 543.917 45.3056 544.408C45.5723 544.899 45.9243 545.267 46.3616 545.512C46.799 545.747 47.279 545.864 47.8016 545.864ZM56.148 539.656C56.404 539.155 56.7667 538.765 57.236 538.488C57.716 538.211 58.2973 538.072 58.98 538.072V539.576H58.596C56.964 539.576 56.148 540.461 56.148 542.232V547H54.692V538.232H56.148V539.656ZM62.9168 539.432V544.6C62.9168 545.027 63.0074 545.331 63.1888 545.512C63.3701 545.683 63.6848 545.768 64.1328 545.768H65.2048V547H63.8928C63.0821 547 62.4741 546.813 62.0688 546.44C61.6634 546.067 61.4608 545.453 61.4608 544.6V539.432H60.3248V538.232H61.4608V536.024H62.9168V538.232H65.2048V539.432H62.9168ZM71.0169 539.432H69.1769V547H67.7209V539.432H66.5849V538.232H67.7209V537.608C67.7209 536.627 67.9715 535.912 68.4729 535.464C68.9849 535.005 69.8009 534.776 70.9209 534.776V535.992C70.2809 535.992 69.8275 536.12 69.5609 536.376C69.3049 536.621 69.1769 537.032 69.1769 537.608V538.232H71.0169V539.432ZM77.0185 547.144C76.1972 547.144 75.4505 546.957 74.7785 546.584C74.1172 546.211 73.5945 545.683 73.2105 545C72.8372 544.307 72.6505 543.507 72.6505 542.6C72.6505 541.704 72.8425 540.915 73.2265 540.232C73.6212 539.539 74.1545 539.011 74.8265 538.648C75.4985 538.275 76.2505 538.088 77.0825 538.088C77.9145 538.088 78.6665 538.275 79.3385 538.648C80.0105 539.011 80.5385 539.533 80.9225 540.216C81.3172 540.899 81.5145 541.693 81.5145 542.6C81.5145 543.507 81.3118 544.307 80.9065 545C80.5118 545.683 79.9732 546.211 79.2905 546.584C78.6078 546.957 77.8505 547.144 77.0185 547.144ZM77.0185 545.864C77.5412 545.864 78.0318 545.741 78.4905 545.496C78.9492 545.251 79.3172 544.883 79.5945 544.392C79.8825 543.901 80.0265 543.304 80.0265 542.6C80.0265 541.896 79.8878 541.299 79.6105 540.808C79.3332 540.317 78.9705 539.955 78.5225 539.72C78.0745 539.475 77.5892 539.352 77.0665 539.352C76.5332 539.352 76.0425 539.475 75.5945 539.72C75.1572 539.955 74.8052 540.317 74.5385 540.808C74.2718 541.299 74.1385 541.896 74.1385 542.6C74.1385 543.315 74.2665 543.917 74.5225 544.408C74.7892 544.899 75.1412 545.267 75.5785 545.512C76.0158 545.747 76.4958 545.864 77.0185 545.864ZM85.3649 535.16V547H83.9089V535.16H85.3649ZM89.0784 536.808C88.801 536.808 88.5664 536.712 88.3744 536.52C88.1824 536.328 88.0864 536.093 88.0864 535.816C88.0864 535.539 88.1824 535.304 88.3744 535.112C88.5664 534.92 88.801 534.824 89.0784 534.824C89.345 534.824 89.569 534.92 89.7504 535.112C89.9424 535.304 90.0384 535.539 90.0384 535.816C90.0384 536.093 89.9424 536.328 89.7504 536.52C89.569 536.712 89.345 536.808 89.0784 536.808ZM89.7824 538.232V547H88.3264V538.232H89.7824ZM96.5679 547.144C95.7465 547.144 94.9999 546.957 94.3279 546.584C93.6665 546.211 93.1439 545.683 92.7599 545C92.3865 544.307 92.1999 543.507 92.1999 542.6C92.1999 541.704 92.3919 540.915 92.7759 540.232C93.1705 539.539 93.7039 539.011 94.3759 538.648C95.0479 538.275 95.7999 538.088 96.6319 538.088C97.4639 538.088 98.2159 538.275 98.8879 538.648C99.5599 539.011 100.088 539.533 100.472 540.216C100.867 540.899 101.064 541.693 101.064 542.6C101.064 543.507 100.861 544.307 100.456 545C100.061 545.683 99.5225 546.211 98.8399 546.584C98.1572 546.957 97.3999 547.144 96.5679 547.144ZM96.5679 545.864C97.0905 545.864 97.5812 545.741 98.0399 545.496C98.4985 545.251 98.8665 544.883 99.1439 544.392C99.4319 543.901 99.5759 543.304 99.5759 542.6C99.5759 541.896 99.4372 541.299 99.1599 540.808C98.8825 540.317 98.5199 539.955 98.0719 539.72C97.6239 539.475 97.1385 539.352 96.6159 539.352C96.0825 539.352 95.5919 539.475 95.1439 539.72C94.7065 539.955 94.3545 540.317 94.0879 540.808C93.8212 541.299 93.6879 541.896 93.6879 542.6C93.6879 543.315 93.8159 543.917 94.0719 544.408C94.3385 544.899 94.6905 545.267 95.1279 545.512C95.5652 545.747 96.0452 545.864 96.5679 545.864ZM41.096 567.848V569.032H38.056V579H36.6V569.032H33.544V567.848H41.096ZM51.3682 574.28C51.3682 574.557 51.3522 574.851 51.3202 575.16H44.3122C44.3656 576.024 44.6589 576.701 45.1922 577.192C45.7362 577.672 46.3922 577.912 47.1602 577.912C47.7896 577.912 48.3122 577.768 48.7283 577.48C49.1549 577.181 49.4536 576.787 49.6242 576.296H51.1923C50.9576 577.139 50.4882 577.827 49.7842 578.36C49.0802 578.883 48.2056 579.144 47.1602 579.144C46.3282 579.144 45.5816 578.957 44.9202 578.584C44.2696 578.211 43.7576 577.683 43.3842 577C43.0109 576.307 42.8242 575.507 42.8242 574.6C42.8242 573.693 43.0056 572.899 43.3682 572.216C43.7309 571.533 44.2376 571.011 44.8882 570.648C45.5496 570.275 46.3069 570.088 47.1602 570.088C47.9922 570.088 48.7282 570.269 49.3682 570.632C50.0082 570.995 50.4989 571.496 50.8403 572.136C51.1922 572.765 51.3682 573.48 51.3682 574.28ZM49.8642 573.976C49.8642 573.421 49.7416 572.947 49.4962 572.552C49.2509 572.147 48.9149 571.843 48.4882 571.64C48.0722 571.427 47.6082 571.32 47.0962 571.32C46.3602 571.32 45.7309 571.555 45.2082 572.024C44.6962 572.493 44.4029 573.144 44.3282 573.976H49.8642ZM55.2261 571.656C55.4821 571.155 55.8448 570.765 56.3141 570.488C56.7941 570.211 57.3755 570.072 58.0581 570.072V571.576H57.6741C56.0421 571.576 55.2261 572.461 55.2261 574.232V579H53.7701V570.232H55.2261V571.656ZM70.7629 570.072C71.4455 570.072 72.0535 570.216 72.5869 570.504C73.1202 570.781 73.5415 571.203 73.8509 571.768C74.1602 572.333 74.3149 573.021 74.3149 573.832V579H72.8749V574.04C72.8749 573.165 72.6562 572.499 72.2189 572.04C71.7922 571.571 71.2109 571.336 70.4749 571.336C69.7175 571.336 69.1149 571.581 68.6669 572.072C68.2189 572.552 67.9949 573.251 67.9949 574.168V579H66.5549V574.04C66.5549 573.165 66.3362 572.499 65.8989 572.04C65.4722 571.571 64.8909 571.336 64.1549 571.336C63.3975 571.336 62.7949 571.581 62.3469 572.072C61.8989 572.552 61.6749 573.251 61.6749 574.168V579H60.2189V570.232H61.6749V571.496C61.9629 571.037 62.3469 570.685 62.8269 570.44C63.3175 570.195 63.8562 570.072 64.4429 570.072C65.1789 570.072 65.8295 570.237 66.3949 570.568C66.9602 570.899 67.3815 571.384 67.6589 572.024C67.9042 571.405 68.3095 570.925 68.8749 570.584C69.4402 570.243 70.0695 570.072 70.7629 570.072ZM77.9352 568.808C77.6579 568.808 77.4232 568.712 77.2312 568.52C77.0392 568.328 76.9432 568.093 76.9432 567.816C76.9432 567.539 77.0392 567.304 77.2312 567.112C77.4232 566.92 77.6579 566.824 77.9352 566.824C78.2019 566.824 78.4259 566.92 78.6072 567.112C78.7992 567.304 78.8952 567.539 78.8952 567.816C78.8952 568.093 78.7992 568.328 78.6072 568.52C78.4259 568.712 78.2019 568.808 77.9352 568.808ZM78.6392 570.232V579H77.1832V570.232H78.6392ZM85.8728 570.072C86.9394 570.072 87.8034 570.397 88.4648 571.048C89.1261 571.688 89.4568 572.616 89.4568 573.832V579H88.0168V574.04C88.0168 573.165 87.7981 572.499 87.3608 572.04C86.9234 571.571 86.3261 571.336 85.5688 571.336C84.8008 571.336 84.1874 571.576 83.7288 572.056C83.2808 572.536 83.0568 573.235 83.0568 574.152V579H81.6008V570.232H83.0568V571.48C83.3448 571.032 83.7341 570.685 84.2248 570.44C84.7261 570.195 85.2754 570.072 85.8728 570.072ZM93.0671 568.808C92.7898 568.808 92.5551 568.712 92.3631 568.52C92.1711 568.328 92.0751 568.093 92.0751 567.816C92.0751 567.539 92.1711 567.304 92.3631 567.112C92.5551 566.92 92.7898 566.824 93.0671 566.824C93.3338 566.824 93.5578 566.92 93.7391 567.112C93.9311 567.304 94.0271 567.539 94.0271 567.816C94.0271 568.093 93.9311 568.328 93.7391 568.52C93.5578 568.712 93.3338 568.808 93.0671 568.808ZM93.7711 570.232V579H92.3151V570.232H93.7711ZM110.038 579L108.582 577.528C108.038 578.093 107.457 578.515 106.838 578.792C106.22 579.059 105.521 579.192 104.742 579.192C103.974 579.192 103.292 579.053 102.694 578.776C102.108 578.499 101.649 578.104 101.318 577.592C100.998 577.08 100.838 576.483 100.838 575.8C100.838 575.021 101.057 574.339 101.494 573.752C101.942 573.155 102.598 572.685 103.462 572.344C103.121 571.939 102.876 571.565 102.726 571.224C102.577 570.883 102.502 570.509 102.502 570.104C102.502 569.635 102.62 569.213 102.854 568.84C103.1 568.456 103.446 568.157 103.894 567.944C104.342 567.731 104.86 567.624 105.446 567.624C106.022 567.624 106.524 567.736 106.95 567.96C107.377 568.184 107.697 568.499 107.91 568.904C108.124 569.299 108.22 569.741 108.198 570.232H106.742C106.753 569.795 106.63 569.453 106.374 569.208C106.118 568.952 105.788 568.824 105.382 568.824C104.956 568.824 104.609 568.947 104.342 569.192C104.086 569.427 103.958 569.731 103.958 570.104C103.958 570.424 104.044 570.733 104.214 571.032C104.396 571.331 104.694 571.699 105.11 572.136L108.438 575.48L108.726 575.032L109.814 573.208H111.382L110.07 575.48C109.889 575.8 109.676 576.136 109.43 576.488L111.942 579H110.038ZM104.742 577.944C105.318 577.944 105.836 577.832 106.294 577.608C106.764 577.384 107.206 577.037 107.622 576.568L104.342 573.272C102.977 573.795 102.294 574.621 102.294 575.752C102.294 576.381 102.518 576.904 102.966 577.32C103.425 577.736 104.017 577.944 104.742 577.944ZM117.988 573.416C117.988 572.328 118.233 571.352 118.724 570.488C119.215 569.613 119.881 568.931 120.724 568.44C121.577 567.949 122.521 567.704 123.556 567.704C124.772 567.704 125.833 567.997 126.74 568.584C127.647 569.171 128.308 570.003 128.724 571.08H126.98C126.671 570.408 126.223 569.891 125.636 569.528C125.06 569.165 124.367 568.984 123.556 568.984C122.777 568.984 122.079 569.165 121.46 569.528C120.841 569.891 120.356 570.408 120.004 571.08C119.652 571.741 119.476 572.52 119.476 573.416C119.476 574.301 119.652 575.08 120.004 575.752C120.356 576.413 120.841 576.925 121.46 577.288C122.079 577.651 122.777 577.832 123.556 577.832C124.367 577.832 125.06 577.656 125.636 577.304C126.223 576.941 126.671 576.424 126.98 575.752H128.724C128.308 576.819 127.647 577.645 126.74 578.232C125.833 578.808 124.772 579.096 123.556 579.096C122.521 579.096 121.577 578.856 120.724 578.376C119.881 577.885 119.215 577.208 118.724 576.344C118.233 575.48 117.988 574.504 117.988 573.416ZM135.195 579.144C134.374 579.144 133.627 578.957 132.955 578.584C132.294 578.211 131.771 577.683 131.387 577C131.014 576.307 130.827 575.507 130.827 574.6C130.827 573.704 131.019 572.915 131.403 572.232C131.798 571.539 132.331 571.011 133.003 570.648C133.675 570.275 134.427 570.088 135.259 570.088C136.091 570.088 136.843 570.275 137.515 570.648C138.187 571.011 138.715 571.533 139.099 572.216C139.494 572.899 139.691 573.693 139.691 574.6C139.691 575.507 139.489 576.307 139.083 577C138.689 577.683 138.15 578.211 137.467 578.584C136.785 578.957 136.027 579.144 135.195 579.144ZM135.195 577.864C135.718 577.864 136.209 577.741 136.667 577.496C137.126 577.251 137.494 576.883 137.771 576.392C138.059 575.901 138.203 575.304 138.203 574.6C138.203 573.896 138.065 573.299 137.787 572.808C137.51 572.317 137.147 571.955 136.699 571.72C136.251 571.475 135.766 571.352 135.243 571.352C134.71 571.352 134.219 571.475 133.771 571.72C133.334 571.955 132.982 572.317 132.715 572.808C132.449 573.299 132.315 573.896 132.315 574.6C132.315 575.315 132.443 575.917 132.699 576.408C132.966 576.899 133.318 577.267 133.755 577.512C134.193 577.747 134.673 577.864 135.195 577.864ZM146.358 570.072C147.424 570.072 148.288 570.397 148.95 571.048C149.611 571.688 149.942 572.616 149.942 573.832V579H148.502V574.04C148.502 573.165 148.283 572.499 147.846 572.04C147.408 571.571 146.811 571.336 146.054 571.336C145.286 571.336 144.672 571.576 144.214 572.056C143.766 572.536 143.542 573.235 143.542 574.152V579H142.086V570.232H143.542V571.48C143.83 571.032 144.219 570.685 144.71 570.44C145.211 570.195 145.76 570.072 146.358 570.072ZM152.256 574.584C152.256 573.688 152.437 572.904 152.8 572.232C153.163 571.549 153.659 571.021 154.288 570.648C154.928 570.275 155.643 570.088 156.432 570.088C157.115 570.088 157.749 570.248 158.336 570.568C158.923 570.877 159.371 571.288 159.68 571.8V567.16H161.152V579H159.68V577.352C159.392 577.875 158.965 578.307 158.4 578.648C157.835 578.979 157.173 579.144 156.416 579.144C155.637 579.144 154.928 578.952 154.288 578.568C153.659 578.184 153.163 577.645 152.8 576.952C152.437 576.259 152.256 575.469 152.256 574.584ZM159.68 574.6C159.68 573.939 159.547 573.363 159.28 572.872C159.013 572.381 158.651 572.008 158.192 571.752C157.744 571.485 157.248 571.352 156.704 571.352C156.16 571.352 155.664 571.48 155.216 571.736C154.768 571.992 154.411 572.365 154.144 572.856C153.877 573.347 153.744 573.923 153.744 574.584C153.744 575.256 153.877 575.843 154.144 576.344C154.411 576.835 154.768 577.213 155.216 577.48C155.664 577.736 156.16 577.864 156.704 577.864C157.248 577.864 157.744 577.736 158.192 577.48C158.651 577.213 159.013 576.835 159.28 576.344C159.547 575.843 159.68 575.261 159.68 574.6ZM164.845 568.808C164.567 568.808 164.333 568.712 164.141 568.52C163.949 568.328 163.853 568.093 163.853 567.816C163.853 567.539 163.949 567.304 164.141 567.112C164.333 566.92 164.567 566.824 164.845 566.824C165.111 566.824 165.335 566.92 165.517 567.112C165.709 567.304 165.805 567.539 165.805 567.816C165.805 568.093 165.709 568.328 165.517 568.52C165.335 568.712 165.111 568.808 164.845 568.808ZM165.549 570.232V579H164.093V570.232H165.549ZM169.598 577.8H173.902V579H167.934V577.8L172.19 571.416H167.966V570.232H173.87V571.416L169.598 577.8ZM177.023 568.808C176.746 568.808 176.511 568.712 176.319 568.52C176.127 568.328 176.031 568.093 176.031 567.816C176.031 567.539 176.127 567.304 176.319 567.112C176.511 566.92 176.746 566.824 177.023 566.824C177.29 566.824 177.514 566.92 177.695 567.112C177.887 567.304 177.983 567.539 177.983 567.816C177.983 568.093 177.887 568.328 177.695 568.52C177.514 568.712 177.29 568.808 177.023 568.808ZM177.727 570.232V579H176.271V570.232H177.727ZM184.513 579.144C183.692 579.144 182.945 578.957 182.273 578.584C181.612 578.211 181.089 577.683 180.705 577C180.332 576.307 180.145 575.507 180.145 574.6C180.145 573.704 180.337 572.915 180.721 572.232C181.116 571.539 181.649 571.011 182.321 570.648C182.993 570.275 183.745 570.088 184.577 570.088C185.409 570.088 186.161 570.275 186.833 570.648C187.505 571.011 188.033 571.533 188.417 572.216C188.812 572.899 189.009 573.693 189.009 574.6C189.009 575.507 188.806 576.307 188.401 577C188.006 577.683 187.468 578.211 186.785 578.584C186.102 578.957 185.345 579.144 184.513 579.144ZM184.513 577.864C185.036 577.864 185.526 577.741 185.985 577.496C186.444 577.251 186.812 576.883 187.089 576.392C187.377 575.901 187.521 575.304 187.521 574.6C187.521 573.896 187.382 573.299 187.105 572.808C186.828 572.317 186.465 571.955 186.017 571.72C185.569 571.475 185.084 571.352 184.561 571.352C184.028 571.352 183.537 571.475 183.089 571.72C182.652 571.955 182.3 572.317 182.033 572.808C181.766 573.299 181.633 573.896 181.633 574.6C181.633 575.315 181.761 575.917 182.017 576.408C182.284 576.899 182.636 577.267 183.073 577.512C183.51 577.747 183.99 577.864 184.513 577.864ZM195.675 570.072C196.742 570.072 197.606 570.397 198.267 571.048C198.929 571.688 199.259 572.616 199.259 573.832V579H197.819V574.04C197.819 573.165 197.601 572.499 197.163 572.04C196.726 571.571 196.129 571.336 195.371 571.336C194.603 571.336 193.99 571.576 193.531 572.056C193.083 572.536 192.859 573.235 192.859 574.152V579H191.403V570.232H192.859V571.48C193.147 571.032 193.537 570.685 194.027 570.44C194.529 570.195 195.078 570.072 195.675 570.072ZM202.87 568.808C202.592 568.808 202.358 568.712 202.166 568.52C201.974 568.328 201.878 568.093 201.878 567.816C201.878 567.539 201.974 567.304 202.166 567.112C202.358 566.92 202.592 566.824 202.87 566.824C203.136 566.824 203.36 566.92 203.542 567.112C203.734 567.304 203.83 567.539 203.83 567.816C203.83 568.093 203.734 568.328 203.542 568.52C203.36 568.712 203.136 568.808 202.87 568.808ZM203.574 570.232V579H202.118V570.232H203.574ZM41.688 603.112C41.688 604.04 41.368 604.813 40.728 605.432C40.0987 606.04 39.1333 606.344 37.832 606.344H35.688V611H34.232V599.848H37.832C39.0907 599.848 40.0453 600.152 40.696 600.76C41.3573 601.368 41.688 602.152 41.688 603.112ZM37.832 605.144C38.6427 605.144 39.24 604.968 39.624 604.616C40.008 604.264 40.2 603.763 40.2 603.112C40.2 601.736 39.4107 601.048 37.832 601.048H35.688V605.144H37.832ZM45.4336 603.656C45.6896 603.155 46.0523 602.765 46.5216 602.488C47.0016 602.211 47.583 602.072 48.2656 602.072V603.576H47.8816C46.2496 603.576 45.4336 604.461 45.4336 606.232V611H43.9776V602.232H45.4336V603.656ZM51.1784 600.808C50.901 600.808 50.6664 600.712 50.4744 600.52C50.2824 600.328 50.1864 600.093 50.1864 599.816C50.1864 599.539 50.2824 599.304 50.4744 599.112C50.6664 598.92 50.901 598.824 51.1784 598.824C51.445 598.824 51.669 598.92 51.8504 599.112C52.0424 599.304 52.1384 599.539 52.1384 599.816C52.1384 600.093 52.0424 600.328 51.8504 600.52C51.669 600.712 51.445 600.808 51.1784 600.808ZM51.8824 602.232V611H50.4264V602.232H51.8824ZM58.1079 609.656L60.8279 602.232H62.3799L58.9399 611H57.2439L53.8039 602.232H55.3719L58.1079 609.656ZM63.7486 606.584C63.7486 605.688 63.93 604.904 64.2926 604.232C64.6553 603.549 65.1513 603.021 65.7806 602.648C66.4206 602.275 67.13 602.088 67.9086 602.088C68.6766 602.088 69.3433 602.253 69.9086 602.584C70.474 602.915 70.8953 603.331 71.1726 603.832V602.232H72.6446V611H71.1726V609.368C70.8846 609.88 70.4526 610.307 69.8766 610.648C69.3113 610.979 68.65 611.144 67.8926 611.144C67.114 611.144 66.41 610.952 65.7806 610.568C65.1513 610.184 64.6553 609.645 64.2926 608.952C63.93 608.259 63.7486 607.469 63.7486 606.584ZM71.1726 606.6C71.1726 605.939 71.0393 605.363 70.7726 604.872C70.506 604.381 70.1433 604.008 69.6846 603.752C69.2366 603.485 68.7406 603.352 68.1966 603.352C67.6526 603.352 67.1566 603.48 66.7086 603.736C66.2606 603.992 65.9033 604.365 65.6366 604.856C65.37 605.347 65.2366 605.923 65.2366 606.584C65.2366 607.256 65.37 607.843 65.6366 608.344C65.9033 608.835 66.2606 609.213 66.7086 609.48C67.1566 609.736 67.6526 609.864 68.1966 609.864C68.7406 609.864 69.2366 609.736 69.6846 609.48C70.1433 609.213 70.506 608.835 70.7726 608.344C71.0393 607.843 71.1726 607.261 71.1726 606.6ZM75.0411 606.6C75.0411 605.693 75.2225 604.904 75.5851 604.232C75.9478 603.549 76.4491 603.021 77.0891 602.648C77.7398 602.275 78.4811 602.088 79.3131 602.088C80.3905 602.088 81.2758 602.349 81.9691 602.872C82.6731 603.395 83.1371 604.12 83.3611 605.048H81.7931C81.6438 604.515 81.3505 604.093 80.9131 603.784C80.4865 603.475 79.9531 603.32 79.3131 603.32C78.4811 603.32 77.8091 603.608 77.2971 604.184C76.7851 604.749 76.5291 605.555 76.5291 606.6C76.5291 607.656 76.7851 608.472 77.2971 609.048C77.8091 609.624 78.4811 609.912 79.3131 609.912C79.9531 609.912 80.4865 609.763 80.9131 609.464C81.3398 609.165 81.6331 608.739 81.7931 608.184H83.3611C83.1265 609.08 82.6571 609.8 81.9531 610.344C81.2491 610.877 80.3691 611.144 79.3131 611.144C78.4811 611.144 77.7398 610.957 77.0891 610.584C76.4491 610.211 75.9478 609.683 75.5851 609C75.2225 608.317 75.0411 607.517 75.0411 606.6ZM93.3359 602.232L88.0559 615.128H86.5519L88.2799 610.904L84.7439 602.232H86.3599L89.1119 609.336L91.8319 602.232H93.3359ZM107.481 603.112C107.481 604.04 107.161 604.813 106.521 605.432C105.892 606.04 104.926 606.344 103.625 606.344H101.481V611H100.025V599.848H103.625C104.884 599.848 105.838 600.152 106.489 600.76C107.15 601.368 107.481 602.152 107.481 603.112ZM103.625 605.144C104.436 605.144 105.033 604.968 105.417 604.616C105.801 604.264 105.993 603.763 105.993 603.112C105.993 601.736 105.204 601.048 103.625 601.048H101.481V605.144H103.625ZM113.595 611.144C112.773 611.144 112.027 610.957 111.355 610.584C110.693 610.211 110.171 609.683 109.787 609C109.413 608.307 109.227 607.507 109.227 606.6C109.227 605.704 109.419 604.915 109.803 604.232C110.197 603.539 110.731 603.011 111.403 602.648C112.075 602.275 112.827 602.088 113.659 602.088C114.491 602.088 115.243 602.275 115.915 602.648C116.587 603.011 117.115 603.533 117.499 604.216C117.893 604.899 118.091 605.693 118.091 606.6C118.091 607.507 117.888 608.307 117.483 609C117.088 609.683 116.549 610.211 115.867 610.584C115.184 610.957 114.427 611.144 113.595 611.144ZM113.595 609.864C114.117 609.864 114.608 609.741 115.067 609.496C115.525 609.251 115.893 608.883 116.171 608.392C116.459 607.901 116.603 607.304 116.603 606.6C116.603 605.896 116.464 605.299 116.187 604.808C115.909 604.317 115.547 603.955 115.099 603.72C114.651 603.475 114.165 603.352 113.643 603.352C113.109 603.352 112.619 603.475 112.171 603.72C111.733 603.955 111.381 604.317 111.115 604.808C110.848 605.299 110.715 605.896 110.715 606.6C110.715 607.315 110.843 607.917 111.099 608.408C111.365 608.899 111.717 609.267 112.155 609.512C112.592 609.747 113.072 609.864 113.595 609.864ZM121.941 599.16V611H120.485V599.16H121.941ZM125.655 600.808C125.377 600.808 125.143 600.712 124.951 600.52C124.759 600.328 124.663 600.093 124.663 599.816C124.663 599.539 124.759 599.304 124.951 599.112C125.143 598.92 125.377 598.824 125.655 598.824C125.921 598.824 126.145 598.92 126.327 599.112C126.519 599.304 126.615 599.539 126.615 599.816C126.615 600.093 126.519 600.328 126.327 600.52C126.145 600.712 125.921 600.808 125.655 600.808ZM126.359 602.232V611H124.903V602.232H126.359ZM128.776 606.6C128.776 605.693 128.957 604.904 129.32 604.232C129.683 603.549 130.184 603.021 130.824 602.648C131.475 602.275 132.216 602.088 133.048 602.088C134.125 602.088 135.011 602.349 135.704 602.872C136.408 603.395 136.872 604.12 137.096 605.048H135.528C135.379 604.515 135.085 604.093 134.648 603.784C134.221 603.475 133.688 603.32 133.048 603.32C132.216 603.32 131.544 603.608 131.032 604.184C130.52 604.749 130.264 605.555 130.264 606.6C130.264 607.656 130.52 608.472 131.032 609.048C131.544 609.624 132.216 609.912 133.048 609.912C133.688 609.912 134.221 609.763 134.648 609.464C135.075 609.165 135.368 608.739 135.528 608.184H137.096C136.861 609.08 136.392 609.8 135.688 610.344C134.984 610.877 134.104 611.144 133.048 611.144C132.216 611.144 131.475 610.957 130.824 610.584C130.184 610.211 129.683 609.683 129.32 609C128.957 608.317 128.776 607.517 128.776 606.6ZM147.071 602.232L141.791 615.128H140.287L142.015 610.904L138.479 602.232H140.095L142.847 609.336L145.567 602.232H147.071Z" fill="white"/>
<rect y="59" width="430" height="844" fill="#CF3F30"/>
</svg>
