<svg width="18" height="17" viewBox="0 0 18 17" fill="none" xmlns="http://www.w3.org/2000/svg">
<path d="M13.9239 2.92738C13.7231 2.92738 13.5268 2.98693 13.3599 3.09849C13.1929 3.21005 13.0628 3.36861 12.986 3.55413C12.9091 3.73965 12.889 3.94379 12.9282 4.14073C12.9674 4.33768 13.064 4.51858 13.206 4.66057C13.348 4.80256 13.5289 4.89926 13.7259 4.93843C13.9228 4.97761 14.127 4.9575 14.3125 4.88066C14.498 4.80381 14.6566 4.67368 14.7681 4.50672C14.8797 4.33976 14.9392 4.14346 14.9392 3.94266C14.9392 3.67339 14.8323 3.41515 14.6419 3.22475C14.4515 3.03435 14.1932 2.92738 13.9239 2.92738ZM17.8158 4.97486C17.7994 4.27288 17.6679 3.57835 17.4267 2.91892C17.2115 2.35471 16.8767 1.84381 16.4452 1.42139C16.0263 0.987718 15.5142 0.655003 14.9477 0.448414C14.29 0.199807 13.5947 0.0653247 12.8917 0.0507638C11.9949 -4.72776e-08 11.7073 0 9.40596 0C7.10466 0 6.817 -4.72776e-08 5.92017 0.0507638C5.21722 0.0653247 4.52192 0.199807 3.86424 0.448414C3.29879 0.657095 2.78714 0.989524 2.3667 1.42139C1.93303 1.84034 1.60032 2.35243 1.39373 2.91892C1.14512 3.57661 1.01064 4.27191 0.996076 4.97486C0.945312 5.87169 0.945312 6.15935 0.945312 8.46065C0.945312 10.7619 0.945312 11.0496 0.996076 11.9464C1.01064 12.6494 1.14512 13.3447 1.39373 14.0024C1.60032 14.5689 1.93303 15.081 2.3667 15.4999C2.78714 15.9318 3.29879 16.2642 3.86424 16.4729C4.52192 16.7215 5.21722 16.856 5.92017 16.8705C6.817 16.9213 7.10466 16.9213 9.40596 16.9213C11.7073 16.9213 11.9949 16.9213 12.8917 16.8705C13.5947 16.856 14.29 16.7215 14.9477 16.4729C15.5142 16.2663 16.0263 15.9336 16.4452 15.4999C16.8786 15.0791 17.2137 14.5677 17.4267 14.0024C17.6679 13.3429 17.7994 12.6484 17.8158 11.9464C17.8158 11.0496 17.8666 10.7619 17.8666 8.46065C17.8666 6.15935 17.8666 5.87169 17.8158 4.97486ZM16.2929 11.8449C16.2868 12.382 16.1895 12.9141 16.0053 13.4186C15.8702 13.7868 15.6532 14.1195 15.3707 14.3916C15.0963 14.6712 14.7643 14.8877 14.3977 15.0261C13.8932 15.2103 13.3611 15.3076 12.8241 15.3138C11.978 15.3561 11.665 15.3645 9.4398 15.3645C7.21465 15.3645 6.90161 15.3645 6.05554 15.3138C5.49789 15.3242 4.94263 15.2383 4.41418 15.06C4.06372 14.9145 3.74693 14.6985 3.48351 14.4254C3.20269 14.1536 2.98843 13.8206 2.85742 13.4524C2.65086 12.9407 2.53629 12.3965 2.51899 11.8449C2.51899 10.9988 2.46823 10.6858 2.46823 8.46065C2.46823 6.2355 2.46823 5.92245 2.51899 5.07639C2.52279 4.52734 2.62302 3.98323 2.81512 3.46887C2.96406 3.11175 3.19268 2.79342 3.48351 2.53819C3.74055 2.24729 4.05823 2.01625 4.41418 1.86134C4.9299 1.67525 5.47345 1.57798 6.0217 1.57368C6.86777 1.57368 7.18081 1.52292 9.40596 1.52292C11.6311 1.52292 11.9442 1.52292 12.7902 1.57368C13.3273 1.57984 13.8594 1.67711 14.3639 1.86134C14.7484 2.00403 15.0935 2.23602 15.3707 2.53819C15.648 2.79809 15.8646 3.11583 16.0053 3.46887C16.1933 3.98406 16.2906 4.52795 16.2929 5.07639C16.3352 5.92245 16.3437 6.2355 16.3437 8.46065C16.3437 10.6858 16.3352 10.9988 16.2929 11.8449ZM9.40596 4.12034C8.54789 4.12201 7.70957 4.37798 6.99692 4.85592C6.28427 5.33385 5.72928 6.0123 5.40207 6.80554C5.07486 7.59877 4.99011 8.4712 5.15854 9.31258C5.32697 10.154 5.74101 10.9265 6.34835 11.5327C6.95569 12.1388 7.72907 12.5514 8.57078 12.7182C9.41248 12.885 10.2847 12.7985 11.0773 12.4698C11.8699 12.141 12.5473 11.5847 13.0238 10.8711C13.5004 10.1575 13.7547 9.31872 13.7547 8.46065C13.7559 7.88964 13.6441 7.32405 13.4258 6.7964C13.2076 6.26875 12.8871 5.78946 12.483 5.38609C12.0788 4.98272 11.5989 4.66324 11.0708 4.44601C10.5428 4.22878 9.97696 4.1181 9.40596 4.12034ZM9.40596 11.278C8.84873 11.278 8.30402 11.1128 7.8407 10.8032C7.37738 10.4936 7.01627 10.0536 6.80303 9.53882C6.58978 9.02401 6.53399 8.45752 6.6427 7.911C6.75141 7.36448 7.01974 6.86247 7.41376 6.46845C7.80778 6.07443 8.30979 5.8061 8.85631 5.69739C9.40283 5.58868 9.96932 5.64447 10.4841 5.85771C10.9989 6.07096 11.439 6.43207 11.7485 6.89539C12.0581 7.3587 12.2234 7.90342 12.2234 8.46065C12.2234 8.83063 12.1505 9.197 12.0089 9.53882C11.8673 9.88064 11.6598 10.1912 11.3982 10.4528C11.1365 10.7145 10.826 10.922 10.4841 11.0636C10.1423 11.2052 9.77595 11.278 9.40596 11.278Z" fill="#FAFAFA"/>
</svg>
