<svg width="163" height="42" viewBox="0 0 163 42" fill="none" xmlns="http://www.w3.org/2000/svg">
<path d="M59.541 14.4043V11.6016C59.541 11.2174 59.4661 10.8561 59.3164 10.5176C59.1732 10.1725 58.9746 9.87305 58.7207 9.61914C58.4668 9.36523 58.1673 9.16667 57.8223 9.02344C57.4837 8.8737 57.1224 8.79883 56.7383 8.79883C56.3542 8.79883 55.9896 8.8737 55.6445 9.02344C55.306 9.16667 55.0098 9.36523 54.7559 9.61914C54.502 9.87305 54.3001 10.1725 54.1504 10.5176C54.0072 10.8561 53.9355 11.2174 53.9355 11.6016V14.4043H59.541ZM62.3438 20H59.541V17.1973H53.9355V20H51.1426V11.6016C51.1426 10.8268 51.2891 10.1009 51.582 9.42383C51.875 8.74023 52.2721 8.14453 52.7734 7.63672C53.2812 7.12891 53.8737 6.72852 54.5508 6.43555C55.2344 6.14258 55.9635 5.99609 56.7383 5.99609C57.513 5.99609 58.2389 6.14258 58.916 6.43555C59.5996 6.72852 60.1953 7.12891 60.7031 7.63672C61.2109 8.14453 61.6113 8.74023 61.9043 9.42383C62.1973 10.1009 62.3438 10.8268 62.3438 11.6016V20ZM68.5547 17.4414C68.6589 17.474 68.763 17.4967 68.8672 17.5098C68.9714 17.5163 69.0755 17.5195 69.1797 17.5195C69.4401 17.5195 69.6908 17.4837 69.9316 17.4121C70.1725 17.3405 70.3971 17.2396 70.6055 17.1094C70.8203 16.9727 71.0091 16.8099 71.1719 16.6211C71.3411 16.4258 71.4779 16.2109 71.582 15.9766L73.5352 17.9395C73.2878 18.291 73.0013 18.6068 72.6758 18.8867C72.3568 19.1667 72.0085 19.4043 71.6309 19.5996C71.2598 19.7949 70.8659 19.9414 70.4492 20.0391C70.0391 20.1432 69.6159 20.1953 69.1797 20.1953C68.444 20.1953 67.7507 20.0586 67.0996 19.7852C66.4551 19.5117 65.8887 19.1309 65.4004 18.6426C64.9186 18.1543 64.5378 17.5749 64.2578 16.9043C63.9779 16.2272 63.8379 15.485 63.8379 14.6777C63.8379 13.8509 63.9779 13.0957 64.2578 12.4121C64.5378 11.7285 64.9186 11.1458 65.4004 10.6641C65.8887 10.1823 66.4551 9.80794 67.0996 9.54102C67.7507 9.27409 68.444 9.14062 69.1797 9.14062C69.6159 9.14062 70.0423 9.19271 70.459 9.29688C70.8757 9.40104 71.2695 9.55078 71.6406 9.74609C72.0182 9.94141 72.3698 10.1823 72.6953 10.4688C73.0208 10.7487 73.3073 11.0645 73.5547 11.416L68.5547 17.4414ZM69.9219 11.9434C69.7982 11.8978 69.6745 11.8685 69.5508 11.8555C69.4336 11.8424 69.3099 11.8359 69.1797 11.8359C68.8151 11.8359 68.4701 11.9043 68.1445 12.041C67.8255 12.1712 67.5456 12.36 67.3047 12.6074C67.0703 12.8548 66.8848 13.1543 66.748 13.5059C66.6113 13.8509 66.543 14.2415 66.543 14.6777C66.543 14.7754 66.5462 14.8861 66.5527 15.0098C66.5658 15.1335 66.582 15.2604 66.6016 15.3906C66.6276 15.5143 66.6569 15.6348 66.6895 15.752C66.722 15.8691 66.7643 15.9733 66.8164 16.0645L69.9219 11.9434ZM80.1465 20C79.502 20 78.8965 19.8796 78.3301 19.6387C77.7637 19.3913 77.2656 19.056 76.8359 18.6328C76.4128 18.2031 76.0775 17.7051 75.8301 17.1387C75.5892 16.5723 75.4688 15.9668 75.4688 15.3223V12.2168H74.1699V9.56055H75.4688V5.38086H78.125V9.56055H82.168V12.2168H78.125V15.3223C78.125 15.6022 78.1771 15.8659 78.2812 16.1133C78.3854 16.3542 78.5286 16.5658 78.7109 16.748C78.8932 16.9303 79.1081 17.0768 79.3555 17.1875C79.6029 17.2917 79.8665 17.3438 80.1465 17.3438H82.168V20H80.1465ZM86.3379 20H83.6719V5.38086H86.3379V10C86.6569 9.75911 86.9857 9.58984 87.3242 9.49219C87.6628 9.38802 88.0078 9.33594 88.3594 9.33594C89.0039 9.33594 89.6094 9.45964 90.1758 9.70703C90.7422 9.94792 91.2337 10.2832 91.6504 10.7129C92.0736 11.1361 92.4056 11.6341 92.6465 12.207C92.8939 12.7734 93.0176 13.3789 93.0176 14.0234V20H90.332V14.0234H90.3516C90.3516 13.75 90.2995 13.4928 90.1953 13.252C90.0911 13.0046 89.9479 12.7897 89.7656 12.6074C89.5833 12.4251 89.3717 12.2819 89.1309 12.1777C88.89 12.0736 88.6328 12.0215 88.3594 12.0215C88.0794 12.0215 87.8158 12.0736 87.5684 12.1777C87.321 12.2819 87.1061 12.4251 86.9238 12.6074C86.7415 12.7897 86.5983 13.0046 86.4941 13.252C86.39 13.4928 86.3379 13.75 86.3379 14.0234V20ZM99.082 17.4414C99.1862 17.474 99.2904 17.4967 99.3945 17.5098C99.4987 17.5163 99.6029 17.5195 99.707 17.5195C99.9674 17.5195 100.218 17.4837 100.459 17.4121C100.7 17.3405 100.924 17.2396 101.133 17.1094C101.348 16.9727 101.536 16.8099 101.699 16.6211C101.868 16.4258 102.005 16.2109 102.109 15.9766L104.062 17.9395C103.815 18.291 103.529 18.6068 103.203 18.8867C102.884 19.1667 102.536 19.4043 102.158 19.5996C101.787 19.7949 101.393 19.9414 100.977 20.0391C100.566 20.1432 100.143 20.1953 99.707 20.1953C98.9714 20.1953 98.278 20.0586 97.627 19.7852C96.9824 19.5117 96.416 19.1309 95.9277 18.6426C95.446 18.1543 95.0651 17.5749 94.7852 16.9043C94.5052 16.2272 94.3652 15.485 94.3652 14.6777C94.3652 13.8509 94.5052 13.0957 94.7852 12.4121C95.0651 11.7285 95.446 11.1458 95.9277 10.6641C96.416 10.1823 96.9824 9.80794 97.627 9.54102C98.278 9.27409 98.9714 9.14062 99.707 9.14062C100.143 9.14062 100.57 9.19271 100.986 9.29688C101.403 9.40104 101.797 9.55078 102.168 9.74609C102.546 9.94141 102.897 10.1823 103.223 10.4688C103.548 10.7487 103.835 11.0645 104.082 11.416L99.082 17.4414ZM100.449 11.9434C100.326 11.8978 100.202 11.8685 100.078 11.8555C99.9609 11.8424 99.8372 11.8359 99.707 11.8359C99.3424 11.8359 98.9974 11.9043 98.6719 12.041C98.3529 12.1712 98.0729 12.36 97.832 12.6074C97.5977 12.8548 97.4121 13.1543 97.2754 13.5059C97.1387 13.8509 97.0703 14.2415 97.0703 14.6777C97.0703 14.7754 97.0736 14.8861 97.0801 15.0098C97.0931 15.1335 97.1094 15.2604 97.1289 15.3906C97.1549 15.5143 97.1842 15.6348 97.2168 15.752C97.2493 15.8691 97.2917 15.9733 97.3438 16.0645L100.449 11.9434ZM108.096 20H105.43V9.54102H106.074L106.953 10.7812C107.383 10.3906 107.871 10.0911 108.418 9.88281C108.965 9.66797 109.531 9.56055 110.117 9.56055H112.471V12.2168H110.117C109.837 12.2168 109.574 12.2689 109.326 12.373C109.079 12.4772 108.864 12.6204 108.682 12.8027C108.499 12.985 108.356 13.1999 108.252 13.4473C108.148 13.6947 108.096 13.9583 108.096 14.2383V20ZM125.176 18.5645C124.525 19.1243 123.796 19.554 122.988 19.8535C122.181 20.153 121.344 20.3027 120.479 20.3027C119.814 20.3027 119.173 20.2148 118.555 20.0391C117.943 19.8698 117.367 19.6289 116.826 19.3164C116.292 18.9974 115.804 18.6165 115.361 18.1738C114.919 17.7311 114.538 17.2428 114.219 16.709C113.906 16.1686 113.662 15.5924 113.486 14.9805C113.317 14.362 113.232 13.7207 113.232 13.0566C113.232 12.3926 113.317 11.7513 113.486 11.1328C113.662 10.5143 113.906 9.93815 114.219 9.4043C114.538 8.86393 114.919 8.3724 115.361 7.92969C115.804 7.48698 116.292 7.10938 116.826 6.79688C117.367 6.47786 117.943 6.23372 118.555 6.06445C119.173 5.88867 119.814 5.80078 120.479 5.80078C121.344 5.80078 122.181 5.95052 122.988 6.25C123.796 6.54297 124.525 6.97266 125.176 7.53906L123.691 9.98047C123.281 9.53776 122.796 9.19922 122.236 8.96484C121.676 8.72396 121.09 8.60352 120.479 8.60352C119.86 8.60352 119.281 8.7207 118.74 8.95508C118.2 9.18945 117.728 9.50846 117.324 9.91211C116.921 10.3092 116.602 10.7812 116.367 11.3281C116.133 11.8685 116.016 12.4447 116.016 13.0566C116.016 13.6686 116.133 14.2448 116.367 14.7852C116.602 15.319 116.921 15.7878 117.324 16.1914C117.728 16.5951 118.2 16.9141 118.74 17.1484C119.281 17.3828 119.86 17.5 120.479 17.5C121.09 17.5 121.676 17.3828 122.236 17.1484C122.796 16.9076 123.281 16.5658 123.691 16.123L125.176 18.5645ZM129.189 20H126.523V9.54102H127.168L128.047 10.7812C128.477 10.3906 128.965 10.0911 129.512 9.88281C130.059 9.66797 130.625 9.56055 131.211 9.56055H133.564V12.2168H131.211C130.931 12.2168 130.667 12.2689 130.42 12.373C130.173 12.4772 129.958 12.6204 129.775 12.8027C129.593 12.985 129.45 13.1999 129.346 13.4473C129.242 13.6947 129.189 13.9583 129.189 14.2383V20ZM144.736 20H144.092L143.057 18.5645C142.803 18.7923 142.533 19.0072 142.246 19.209C141.966 19.4043 141.67 19.5768 141.357 19.7266C141.045 19.8698 140.723 19.9837 140.391 20.0684C140.065 20.153 139.733 20.1953 139.395 20.1953C138.659 20.1953 137.965 20.0716 137.314 19.8242C136.67 19.5768 136.104 19.2188 135.615 18.75C135.133 18.2747 134.753 17.6953 134.473 17.0117C134.193 16.3281 134.053 15.5501 134.053 14.6777C134.053 13.8639 134.193 13.1185 134.473 12.4414C134.753 11.7578 135.133 11.1719 135.615 10.6836C136.104 10.1953 136.67 9.81771 137.314 9.55078C137.965 9.27734 138.659 9.14062 139.395 9.14062C139.733 9.14062 140.068 9.18294 140.4 9.26758C140.732 9.35221 141.055 9.4694 141.367 9.61914C141.68 9.76888 141.976 9.94466 142.256 10.1465C142.542 10.3483 142.809 10.5664 143.057 10.8008L144.092 9.56055H144.736V20ZM142.051 14.6777C142.051 14.3132 141.979 13.9616 141.836 13.623C141.699 13.278 141.51 12.9753 141.27 12.7148C141.029 12.4479 140.745 12.2363 140.42 12.0801C140.101 11.9173 139.759 11.8359 139.395 11.8359C139.03 11.8359 138.685 11.8978 138.359 12.0215C138.04 12.1452 137.76 12.3275 137.52 12.5684C137.285 12.8092 137.1 13.1087 136.963 13.4668C136.826 13.8184 136.758 14.222 136.758 14.6777C136.758 15.1335 136.826 15.5404 136.963 15.8984C137.1 16.25 137.285 16.5462 137.52 16.7871C137.76 17.028 138.04 17.2103 138.359 17.334C138.685 17.4577 139.03 17.5195 139.395 17.5195C139.759 17.5195 140.101 17.4414 140.42 17.2852C140.745 17.1224 141.029 16.9108 141.27 16.6504C141.51 16.3835 141.699 16.0807 141.836 15.7422C141.979 15.3971 142.051 15.0423 142.051 14.6777ZM150.166 20H147.5V12.1973H146.201V9.54102H147.5V9.04297C147.5 8.39844 147.62 7.79297 147.861 7.22656C148.109 6.66016 148.444 6.16862 148.867 5.75195C149.297 5.32878 149.795 4.99674 150.361 4.75586C150.928 4.50846 151.533 4.38477 152.178 4.38477H154.18V7.04102H152.178C151.891 7.04102 151.624 7.0931 151.377 7.19727C151.136 7.29492 150.924 7.4349 150.742 7.61719C150.566 7.79297 150.426 8.00456 150.322 8.25195C150.218 8.49284 150.166 8.75651 150.166 9.04297V9.54102H153.438V12.1973H150.166V20ZM159.951 20C159.307 20 158.701 19.8796 158.135 19.6387C157.568 19.3913 157.07 19.056 156.641 18.6328C156.217 18.2031 155.882 17.7051 155.635 17.1387C155.394 16.5723 155.273 15.9668 155.273 15.3223V12.2168H153.975V9.56055H155.273V5.38086H157.93V9.56055H161.973V12.2168H157.93V15.3223C157.93 15.6022 157.982 15.8659 158.086 16.1133C158.19 16.3542 158.333 16.5658 158.516 16.748C158.698 16.9303 158.913 17.0768 159.16 17.1875C159.408 17.2917 159.671 17.3438 159.951 17.3438H161.973V20H159.951Z" fill="#094A4C"/>
<path d="M60.518 31.114C60.518 30.162 60.7373 29.308 61.176 28.552C61.624 27.796 62.226 27.208 62.982 26.788C63.7473 26.3587 64.5827 26.144 65.488 26.144C66.524 26.144 67.4433 26.4007 68.246 26.914C69.058 27.418 69.646 28.1367 70.01 29.07H68.092C67.84 28.5567 67.49 28.174 67.042 27.922C66.594 27.67 66.076 27.544 65.488 27.544C64.844 27.544 64.27 27.6887 63.766 27.978C63.262 28.2673 62.8653 28.6827 62.576 29.224C62.296 29.7653 62.156 30.3953 62.156 31.114C62.156 31.8327 62.296 32.4627 62.576 33.004C62.8653 33.5453 63.262 33.9653 63.766 34.264C64.27 34.5533 64.844 34.698 65.488 34.698C66.076 34.698 66.594 34.572 67.042 34.32C67.49 34.068 67.84 33.6853 68.092 33.172H70.01C69.646 34.1053 69.058 34.824 68.246 35.328C67.4433 35.832 66.524 36.084 65.488 36.084C64.5733 36.084 63.738 35.874 62.982 35.454C62.226 35.0247 61.624 34.432 61.176 33.676C60.7373 32.92 60.518 32.066 60.518 31.114ZM78.3321 36L76.0921 32.108H74.8741V36H73.2781V26.27H76.6381C77.3848 26.27 78.0148 26.4007 78.5281 26.662C79.0508 26.9233 79.4381 27.2733 79.6901 27.712C79.9515 28.1507 80.0821 28.6407 80.0821 29.182C80.0821 29.8167 79.8955 30.3953 79.5221 30.918C79.1581 31.4313 78.5935 31.7813 77.8281 31.968L80.2361 36H78.3321ZM74.8741 30.834H76.6381C77.2355 30.834 77.6835 30.6847 77.9821 30.386C78.2901 30.0873 78.4441 29.686 78.4441 29.182C78.4441 28.678 78.2948 28.286 77.9961 28.006C77.6975 27.7167 77.2448 27.572 76.6381 27.572H74.8741V30.834ZM85.1198 27.558V30.414H88.4798V31.716H85.1198V34.698H88.8998V36H83.5238V26.256H88.8998V27.558H85.1198ZM98.1316 34.012H94.0576L93.3576 36H91.6916L95.1776 26.256H97.0256L100.512 36H98.8316L98.1316 34.012ZM97.6836 32.71L96.1016 28.188L94.5056 32.71H97.6836ZM109.713 26.27V27.572H107.123V36H105.527V27.572H102.923V26.27H109.713ZM114.326 26.27V36H112.73V26.27H114.326ZM122.259 36.098C121.354 36.098 120.518 35.888 119.753 35.468C118.997 35.0387 118.395 34.446 117.947 33.69C117.508 32.9247 117.289 32.066 117.289 31.114C117.289 30.162 117.508 29.308 117.947 28.552C118.395 27.796 118.997 27.208 119.753 26.788C120.518 26.3587 121.354 26.144 122.259 26.144C123.174 26.144 124.009 26.3587 124.765 26.788C125.53 27.208 126.132 27.796 126.571 28.552C127.01 29.308 127.229 30.162 127.229 31.114C127.229 32.066 127.01 32.9247 126.571 33.69C126.132 34.446 125.53 35.0387 124.765 35.468C124.009 35.888 123.174 36.098 122.259 36.098ZM122.259 34.712C122.903 34.712 123.477 34.5673 123.981 34.278C124.485 33.9793 124.877 33.5593 125.157 33.018C125.446 32.4673 125.591 31.8327 125.591 31.114C125.591 30.3953 125.446 29.7653 125.157 29.224C124.877 28.6827 124.485 28.2673 123.981 27.978C123.477 27.6887 122.903 27.544 122.259 27.544C121.615 27.544 121.041 27.6887 120.537 27.978C120.033 28.2673 119.636 28.6827 119.347 29.224C119.067 29.7653 118.927 30.3953 118.927 31.114C118.927 31.8327 119.067 32.4673 119.347 33.018C119.636 33.5593 120.033 33.9793 120.537 34.278C121.041 34.5673 121.615 34.712 122.259 34.712ZM138.194 36H136.598L131.796 28.734V36H130.2V26.256H131.796L136.598 33.508V26.256H138.194V36ZM144.895 36.098C144.242 36.098 143.654 35.986 143.131 35.762C142.609 35.5287 142.198 35.202 141.899 34.782C141.601 34.362 141.451 33.872 141.451 33.312H143.159C143.197 33.732 143.36 34.0773 143.649 34.348C143.948 34.6187 144.363 34.754 144.895 34.754C145.446 34.754 145.875 34.6233 146.183 34.362C146.491 34.0913 146.645 33.746 146.645 33.326C146.645 32.9993 146.547 32.7333 146.351 32.528C146.165 32.3227 145.927 32.164 145.637 32.052C145.357 31.94 144.965 31.8187 144.461 31.688C143.827 31.52 143.309 31.352 142.907 31.184C142.515 31.0067 142.179 30.736 141.899 30.372C141.619 30.008 141.479 29.5227 141.479 28.916C141.479 28.356 141.619 27.866 141.899 27.446C142.179 27.026 142.571 26.704 143.075 26.48C143.579 26.256 144.163 26.144 144.825 26.144C145.768 26.144 146.538 26.382 147.135 26.858C147.742 27.3247 148.078 27.9687 148.143 28.79H146.379C146.351 28.4353 146.183 28.132 145.875 27.88C145.567 27.628 145.161 27.502 144.657 27.502C144.2 27.502 143.827 27.6187 143.537 27.852C143.248 28.0853 143.103 28.4213 143.103 28.86C143.103 29.1587 143.192 29.406 143.369 29.602C143.556 29.7887 143.789 29.938 144.069 30.05C144.349 30.162 144.732 30.2833 145.217 30.414C145.861 30.5913 146.384 30.7687 146.785 30.946C147.196 31.1233 147.541 31.3987 147.821 31.772C148.111 32.136 148.255 32.626 148.255 33.242C148.255 33.7367 148.12 34.2033 147.849 34.642C147.588 35.0807 147.201 35.4353 146.687 35.706C146.183 35.9673 145.586 36.098 144.895 36.098Z" fill="#094A4C"/>
<path d="M24.3198 2.42908C18.7607 3.08196 10.5805 7.58492 5.16544 12.9808C2.51551 15.6211 0.873709 18.0886 0.144018 20.5465L0 21.0554L0.576072 20.5465C1.48819 19.7496 1.74742 19.5672 2.62113 19.1352C3.32201 18.7895 3.47563 18.6647 3.75407 18.2327C6.89366 13.3168 15.4195 7.19127 21.8139 5.26143C24.9247 4.32052 27.7955 4.44533 28.5924 5.56867C29.6293 7.02806 28.6116 10.3309 25.4048 15.9092C24.3294 17.7814 23.5421 18.9815 22.4764 20.3737C19.4808 24.291 17.647 25.6256 14.4882 26.2016C13.3361 26.4129 8.8235 26.4321 7.33531 26.24C4.75259 25.904 2.67873 25.0015 2.67873 24.2142C2.67873 23.6573 3.9941 22.774 5.38627 22.39C6.85525 21.9963 8.57387 21.9195 12.0399 22.1019C14.613 22.2364 17.983 22.6396 18.9144 22.9276C19.02 22.9564 19.3272 22.678 19.9033 22.0155L20.729 21.0554L20.3353 20.9498C17.7334 20.2489 14.7666 19.9129 10.4557 19.8264C6.24078 19.7496 5.08863 19.9225 3.00517 20.9594C2.07386 21.4202 1.70901 21.6603 1.17135 22.1787C0.249631 23.0813 0.0384048 23.5421 0.048006 24.6462C0.0768096 26.4609 1.03693 28.5251 2.55392 29.9845C4.50296 31.8856 6.90326 32.7689 11.6559 33.3353C12.6256 33.4601 19.7113 33.4794 19.8937 33.3641C19.9801 33.3161 21.0746 33.1913 23.6574 32.9513C24.6175 32.8649 25.2031 32.7401 27.2098 32.1928C30.8198 31.2135 33.2777 29.9365 35.0828 28.1123C36.6574 26.5281 37.4639 25.0207 37.9247 22.8604C38.1072 22.0251 38.136 21.5643 38.136 20.0377C38.1264 17.1573 37.7231 14.6034 36.859 11.9919C35.2076 7.00885 32.1448 3.71564 28.2659 2.71712C26.893 2.36187 25.6448 2.27546 24.3198 2.42908ZM32.8841 8.81388C33.969 10.4365 34.9004 12.7696 35.3612 14.9778C35.7741 16.9941 35.8509 17.743 35.8509 19.9417C35.8413 21.9579 35.8317 22.0923 35.582 22.8988C34.7563 25.568 33.1049 27.3442 30.119 28.7652C26.7489 30.3782 21.7563 31.2231 15.5923 31.2231C10.6957 31.2231 7.2489 30.5414 5.17505 29.1588C4.55097 28.7364 3.35082 27.5938 3.64845 27.6994C5.77992 28.4387 7.94979 28.6788 11.6751 28.6019C14.3922 28.5443 15.3331 28.4291 16.7829 27.9491C18.7799 27.2962 20.825 25.8848 22.3228 24.1374C24.6943 21.3818 26.2017 19.1544 28.3523 15.2179C30.0517 12.1167 31.1847 8.94829 31.1943 7.24888L31.2039 6.78802L31.78 7.4121C32.1064 7.75775 32.5961 8.38182 32.8841 8.81388Z" fill="#094A4C"/>
<path d="M31.0312 18.2999C28.8133 18.7224 27.2483 19.7401 26.5187 21.2187C26.1826 21.8812 26.1538 22.0252 26.1538 22.7261C26.1538 23.4269 26.1826 23.571 26.5187 24.2334C26.9795 25.1648 27.7284 25.8849 28.8229 26.4225C29.6006 26.8066 30.8872 27.1906 31.3769 27.1906C31.6361 27.1906 32.6538 26.3745 33.1819 25.7408L33.4219 25.4624H32.5098C30.0231 25.4624 27.93 24.2142 27.93 22.7261C27.93 21.6027 29.0438 20.6426 30.8872 20.1721C31.8473 19.9321 33.4699 19.9321 34.4108 20.1817C34.7853 20.2778 35.1021 20.3354 35.1213 20.3162C35.1405 20.297 35.1213 19.8745 35.0829 19.3752L35.0157 18.4631L34.5261 18.3575C33.758 18.1751 31.8281 18.1463 31.0312 18.2999Z" fill="#094A4C"/>
<path d="M26.0672 33.8249C25.5488 33.9785 25.1071 34.1129 25.0975 34.1225C25.0783 34.1417 25.856 35.1403 26.8161 36.3596L28.5635 38.5679L29.082 38.6351C29.7637 38.7119 31.3863 38.7311 31.3863 38.6543C31.3863 38.5487 27.229 33.5753 27.1234 33.5657C27.0658 33.5561 26.5857 33.6713 26.0672 33.8249Z" fill="#094A4C"/>
<path d="M9.486 36.4461C8.78512 37.5983 8.18024 38.5872 8.17064 38.6352C8.15144 38.6832 8.71791 38.7024 9.4476 38.6928L10.763 38.664L12.0495 36.5613C12.76 35.4092 13.3361 34.4491 13.3169 34.4395C13.2977 34.4203 12.7216 34.3915 12.0303 34.3723L10.7822 34.3338L9.486 36.4461Z" fill="#094A4C"/>
<path d="M17.6087 34.7275C17.5895 34.7755 17.5511 35.3611 17.5223 36.0236C17.4839 36.6861 17.4359 37.627 17.3975 38.1071L17.3398 39H18.4536H19.5577L19.6153 38.6352C19.6441 38.4431 19.6921 37.7134 19.7209 37.0318C19.7497 36.3405 19.7978 35.5148 19.8266 35.1979L19.8842 34.6027L18.7608 34.6219C18.0983 34.6219 17.6183 34.6699 17.6087 34.7275Z" fill="#094A4C"/>
</svg>
