<svg width="348" height="92" viewBox="0 0 348 92" fill="none" xmlns="http://www.w3.org/2000/svg">
<path d="M60.5828 0.181389C46.7346 1.80777 26.357 13.025 12.8676 26.4666C6.26636 33.0439 2.17649 39.1907 0.358761 45.3136L0 46.5812L1.43505 45.3136C3.7072 43.3284 4.35297 42.874 6.52946 41.7977C8.27543 40.9367 8.65811 40.6257 9.35171 39.5495C17.1727 27.3037 38.4114 12.0444 54.3404 7.23702C62.0896 4.89312 69.2409 5.20405 71.2261 8.00238C73.8092 11.6378 71.2739 19.8654 63.2855 33.7614C60.6067 38.4253 58.6455 41.415 55.9907 44.883C48.5285 54.6414 43.9602 57.9659 36.0914 59.4009C33.2213 59.9271 21.9801 59.9749 18.2729 59.4966C11.8391 58.6595 6.67296 56.4112 6.67296 54.45C6.67296 53.0628 9.94965 50.8624 13.4177 49.9057C17.077 48.9251 21.3583 48.7337 29.9924 49.1882C36.4023 49.523 44.7973 50.5276 47.1173 51.2451C47.3804 51.3168 48.1458 50.6232 49.5808 48.9729L51.6377 46.5812L50.6571 46.3181C44.1755 44.5721 36.785 43.735 26.0461 43.5198C15.5463 43.3284 12.6762 43.7589 7.48615 46.342C5.16616 47.49 4.2573 48.088 2.91793 49.3795C0.621853 51.6278 0.0956697 52.7758 0.119587 55.5263C0.191339 60.0467 2.58308 65.1889 6.36203 68.8244C11.2173 73.56 17.1966 75.7604 29.0357 77.1716C31.4514 77.4825 49.1025 77.5303 49.5569 77.2433C49.7722 77.1237 52.4987 76.8128 58.9325 76.2149C61.3243 75.9996 62.7832 75.6887 67.782 74.3254C76.7749 71.8858 82.8978 68.7048 87.3943 64.1605C91.3167 60.2141 93.3258 56.4591 94.4738 51.0777C94.9282 48.9968 95 47.8488 95 44.0459C94.9761 36.8707 93.9715 30.5087 91.819 24.0031C87.7052 11.59 80.0755 3.38632 70.4129 0.898911C66.9927 0.0139618 63.8834 -0.201294 60.5828 0.181389ZM81.9172 16.0865C84.6198 20.1285 86.9398 25.9404 88.0879 31.4415C89.1163 36.4641 89.3077 38.3297 89.3077 43.8068C89.2837 48.8294 89.2598 49.1643 88.638 51.1733C86.5811 57.8224 82.4673 62.2471 75.029 65.7869C66.6339 69.805 54.1969 71.9097 38.8419 71.9097C26.644 71.9097 18.0577 70.2116 12.8915 66.7675C11.3369 65.7151 8.34718 62.8689 9.08862 63.132C14.3983 64.9737 19.8036 65.5716 29.0836 65.3803C35.8522 65.2368 38.1961 64.9498 41.8077 63.7539C46.7825 62.1275 51.8769 58.6116 55.608 54.2587C61.5156 47.3944 65.2706 41.8455 70.6281 32.0394C74.8615 24.3141 77.6838 16.4213 77.7077 12.1879L77.7316 11.0399L79.1667 12.5945C79.9799 13.4556 81.1996 15.0102 81.9172 16.0865Z" fill="white"/>
<path d="M77.3014 39.7169C71.7765 40.7692 67.878 43.3045 66.0602 46.9877C65.2231 48.638 65.1514 48.9968 65.1514 50.7428C65.1514 52.4888 65.2231 52.8475 66.0602 54.4978C67.2083 56.8178 69.0738 58.6116 71.8004 59.951C73.7377 60.9077 76.9427 61.8644 78.1624 61.8644C78.8082 61.8644 81.3435 59.8314 82.6589 58.2528L83.2569 57.5592H80.9847C74.7901 57.5592 69.5761 54.45 69.5761 50.7428C69.5761 47.9444 72.3505 45.5527 76.9427 44.3807C79.3344 43.7828 83.3764 43.7828 85.7204 44.4047C86.6531 44.6438 87.4424 44.7873 87.4902 44.7395C87.5381 44.6917 87.4902 43.6393 87.3946 42.3956L87.2271 40.1234L86.0074 39.8604C84.094 39.4059 79.2866 39.3342 77.3014 39.7169Z" fill="white"/>
<path d="M64.9358 78.3913C63.6443 78.774 62.5441 79.1089 62.5202 79.1328C62.4723 79.1806 64.4096 81.668 66.8014 84.7055L71.1543 90.2065L72.4459 90.374C74.144 90.5653 78.1861 90.6131 78.1861 90.4218C78.1861 90.1587 67.8298 77.7695 67.5667 77.7456C67.4232 77.7217 66.2274 78.0087 64.9358 78.3913Z" fill="white"/>
<path d="M23.6304 84.9208C21.8844 87.7909 20.3776 90.2544 20.3537 90.374C20.3059 90.4936 21.717 90.5414 23.5347 90.5175L26.8114 90.4457L30.0164 85.2078C31.7862 82.3377 33.2213 79.946 33.1735 79.9221C33.1256 79.8742 31.6906 79.8025 29.9685 79.7546L26.8593 79.659L23.6304 84.9208Z" fill="white"/>
<path d="M43.8643 80.6396C43.8164 80.7592 43.7208 82.2181 43.649 83.8684C43.5533 85.5187 43.4338 87.8626 43.3381 89.0585L43.1946 91.2828H45.969H48.7195L48.863 90.374C48.9348 89.8956 49.0543 88.0779 49.1261 86.3798C49.1979 84.6577 49.3174 82.6008 49.3892 81.8115L49.5327 80.3287L46.7344 80.3765C45.0841 80.3765 43.8882 80.4961 43.8643 80.6396Z" fill="white"/>
<path d="M142.082 28.8086V23.2031C142.082 22.4349 141.932 21.7122 141.633 21.0352C141.346 20.3451 140.949 19.7461 140.441 19.2383C139.934 18.7305 139.335 18.3333 138.645 18.0469C137.967 17.7474 137.245 17.5977 136.477 17.5977C135.708 17.5977 134.979 17.7474 134.289 18.0469C133.612 18.3333 133.02 18.7305 132.512 19.2383C132.004 19.7461 131.6 20.3451 131.301 21.0352C131.014 21.7122 130.871 22.4349 130.871 23.2031V28.8086H142.082ZM147.688 40H142.082V34.3945H130.871V40H125.285V23.2031C125.285 21.6536 125.578 20.2018 126.164 18.8477C126.75 17.4805 127.544 16.2891 128.547 15.2734C129.562 14.2578 130.747 13.457 132.102 12.8711C133.469 12.2852 134.927 11.9922 136.477 11.9922C138.026 11.9922 139.478 12.2852 140.832 12.8711C142.199 13.457 143.391 14.2578 144.406 15.2734C145.422 16.2891 146.223 17.4805 146.809 18.8477C147.395 20.2018 147.688 21.6536 147.688 23.2031V40ZM160.109 34.8828C160.318 34.9479 160.526 34.9935 160.734 35.0195C160.943 35.0326 161.151 35.0391 161.359 35.0391C161.88 35.0391 162.382 34.9674 162.863 34.8242C163.345 34.681 163.794 34.4792 164.211 34.2188C164.641 33.9453 165.018 33.6198 165.344 33.2422C165.682 32.8516 165.956 32.4219 166.164 31.9531L170.07 35.8789C169.576 36.582 169.003 37.2135 168.352 37.7734C167.714 38.3333 167.017 38.8086 166.262 39.1992C165.52 39.5898 164.732 39.8828 163.898 40.0781C163.078 40.2865 162.232 40.3906 161.359 40.3906C159.888 40.3906 158.501 40.1172 157.199 39.5703C155.91 39.0234 154.777 38.2617 153.801 37.2852C152.837 36.3086 152.076 35.1497 151.516 33.8086C150.956 32.4544 150.676 30.9701 150.676 29.3555C150.676 27.7018 150.956 26.1914 151.516 24.8242C152.076 23.457 152.837 22.2917 153.801 21.3281C154.777 20.3646 155.91 19.6159 157.199 19.082C158.501 18.5482 159.888 18.2812 161.359 18.2812C162.232 18.2812 163.085 18.3854 163.918 18.5938C164.751 18.8021 165.539 19.1016 166.281 19.4922C167.036 19.8828 167.74 20.3646 168.391 20.9375C169.042 21.4974 169.615 22.1289 170.109 22.832L160.109 34.8828ZM162.844 23.8867C162.596 23.7956 162.349 23.737 162.102 23.7109C161.867 23.6849 161.62 23.6719 161.359 23.6719C160.63 23.6719 159.94 23.8086 159.289 24.082C158.651 24.3424 158.091 24.7201 157.609 25.2148C157.141 25.7096 156.77 26.3086 156.496 27.0117C156.223 27.7018 156.086 28.4831 156.086 29.3555C156.086 29.5508 156.092 29.7721 156.105 30.0195C156.132 30.2669 156.164 30.5208 156.203 30.7812C156.255 31.0286 156.314 31.2695 156.379 31.5039C156.444 31.7383 156.529 31.9466 156.633 32.1289L162.844 23.8867ZM183.293 40C182.004 40 180.793 39.7591 179.66 39.2773C178.527 38.7826 177.531 38.112 176.672 37.2656C175.826 36.4062 175.155 35.4102 174.66 34.2773C174.178 33.1445 173.938 31.9336 173.938 30.6445V24.4336H171.34V19.1211H173.938V10.7617H179.25V19.1211H187.336V24.4336H179.25V30.6445C179.25 31.2044 179.354 31.7318 179.562 32.2266C179.771 32.7083 180.057 33.1315 180.422 33.4961C180.786 33.8607 181.216 34.1536 181.711 34.375C182.206 34.5833 182.733 34.6875 183.293 34.6875H187.336V40H183.293ZM195.676 40H190.344V10.7617H195.676V20C196.314 19.5182 196.971 19.1797 197.648 18.9844C198.326 18.776 199.016 18.6719 199.719 18.6719C201.008 18.6719 202.219 18.9193 203.352 19.4141C204.484 19.8958 205.467 20.5664 206.301 21.4258C207.147 22.2721 207.811 23.2682 208.293 24.4141C208.788 25.5469 209.035 26.7578 209.035 28.0469V40H203.664V28.0469H203.703C203.703 27.5 203.599 26.9857 203.391 26.5039C203.182 26.0091 202.896 25.5794 202.531 25.2148C202.167 24.8503 201.743 24.5638 201.262 24.3555C200.78 24.1471 200.266 24.043 199.719 24.043C199.159 24.043 198.632 24.1471 198.137 24.3555C197.642 24.5638 197.212 24.8503 196.848 25.2148C196.483 25.5794 196.197 26.0091 195.988 26.5039C195.78 26.9857 195.676 27.5 195.676 28.0469V40ZM221.164 34.8828C221.372 34.9479 221.581 34.9935 221.789 35.0195C221.997 35.0326 222.206 35.0391 222.414 35.0391C222.935 35.0391 223.436 34.9674 223.918 34.8242C224.4 34.681 224.849 34.4792 225.266 34.2188C225.695 33.9453 226.073 33.6198 226.398 33.2422C226.737 32.8516 227.01 32.4219 227.219 31.9531L231.125 35.8789C230.63 36.582 230.057 37.2135 229.406 37.7734C228.768 38.3333 228.072 38.8086 227.316 39.1992C226.574 39.5898 225.786 39.8828 224.953 40.0781C224.133 40.2865 223.286 40.3906 222.414 40.3906C220.943 40.3906 219.556 40.1172 218.254 39.5703C216.965 39.0234 215.832 38.2617 214.855 37.2852C213.892 36.3086 213.13 35.1497 212.57 33.8086C212.01 32.4544 211.73 30.9701 211.73 29.3555C211.73 27.7018 212.01 26.1914 212.57 24.8242C213.13 23.457 213.892 22.2917 214.855 21.3281C215.832 20.3646 216.965 19.6159 218.254 19.082C219.556 18.5482 220.943 18.2812 222.414 18.2812C223.286 18.2812 224.139 18.3854 224.973 18.5938C225.806 18.8021 226.594 19.1016 227.336 19.4922C228.091 19.8828 228.794 20.3646 229.445 20.9375C230.096 21.4974 230.669 22.1289 231.164 22.832L221.164 34.8828ZM223.898 23.8867C223.651 23.7956 223.404 23.737 223.156 23.7109C222.922 23.6849 222.674 23.6719 222.414 23.6719C221.685 23.6719 220.995 23.8086 220.344 24.082C219.706 24.3424 219.146 24.7201 218.664 25.2148C218.195 25.7096 217.824 26.3086 217.551 27.0117C217.277 27.7018 217.141 28.4831 217.141 29.3555C217.141 29.5508 217.147 29.7721 217.16 30.0195C217.186 30.2669 217.219 30.5208 217.258 30.7812C217.31 31.0286 217.368 31.2695 217.434 31.5039C217.499 31.7383 217.583 31.9466 217.688 32.1289L223.898 23.8867ZM239.191 40H233.859V19.082H235.148L236.906 21.5625C237.766 20.7812 238.742 20.1823 239.836 19.7656C240.93 19.3359 242.062 19.1211 243.234 19.1211H247.941V24.4336H243.234C242.674 24.4336 242.147 24.5378 241.652 24.7461C241.158 24.9544 240.728 25.2409 240.363 25.6055C239.999 25.9701 239.712 26.3997 239.504 26.8945C239.296 27.3893 239.191 27.9167 239.191 28.4766V40ZM273.352 37.1289C272.049 38.2487 270.591 39.1081 268.977 39.707C267.362 40.306 265.689 40.6055 263.957 40.6055C262.629 40.6055 261.346 40.4297 260.109 40.0781C258.885 39.7396 257.733 39.2578 256.652 38.6328C255.585 37.9948 254.608 37.2331 253.723 36.3477C252.837 35.4622 252.076 34.4857 251.438 33.418C250.812 32.3372 250.324 31.1849 249.973 29.9609C249.634 28.724 249.465 27.4414 249.465 26.1133C249.465 24.7852 249.634 23.5026 249.973 22.2656C250.324 21.0286 250.812 19.8763 251.438 18.8086C252.076 17.7279 252.837 16.7448 253.723 15.8594C254.608 14.974 255.585 14.2188 256.652 13.5938C257.733 12.9557 258.885 12.4674 260.109 12.1289C261.346 11.7773 262.629 11.6016 263.957 11.6016C265.689 11.6016 267.362 11.901 268.977 12.5C270.591 13.0859 272.049 13.9453 273.352 15.0781L270.383 19.9609C269.562 19.0755 268.592 18.3984 267.473 17.9297C266.353 17.4479 265.181 17.207 263.957 17.207C262.72 17.207 261.561 17.4414 260.48 17.9102C259.4 18.3789 258.456 19.0169 257.648 19.8242C256.841 20.6185 256.203 21.5625 255.734 22.6562C255.266 23.737 255.031 24.8893 255.031 26.1133C255.031 27.3372 255.266 28.4896 255.734 29.5703C256.203 30.638 256.841 31.5755 257.648 32.3828C258.456 33.1901 259.4 33.8281 260.48 34.2969C261.561 34.7656 262.72 35 263.957 35C265.181 35 266.353 34.7656 267.473 34.2969C268.592 33.8151 269.562 33.1315 270.383 32.2461L273.352 37.1289ZM281.379 40H276.047V19.082H277.336L279.094 21.5625C279.953 20.7812 280.93 20.1823 282.023 19.7656C283.117 19.3359 284.25 19.1211 285.422 19.1211H290.129V24.4336H285.422C284.862 24.4336 284.335 24.5378 283.84 24.7461C283.345 24.9544 282.915 25.2409 282.551 25.6055C282.186 25.9701 281.9 26.3997 281.691 26.8945C281.483 27.3893 281.379 27.9167 281.379 28.4766V40ZM312.473 40H311.184L309.113 37.1289C308.605 37.5846 308.065 38.0143 307.492 38.418C306.932 38.8086 306.34 39.1536 305.715 39.4531C305.09 39.7396 304.445 39.9674 303.781 40.1367C303.13 40.306 302.466 40.3906 301.789 40.3906C300.318 40.3906 298.931 40.1432 297.629 39.6484C296.34 39.1536 295.207 38.4375 294.23 37.5C293.267 36.5495 292.505 35.3906 291.945 34.0234C291.385 32.6562 291.105 31.1003 291.105 29.3555C291.105 27.7279 291.385 26.237 291.945 24.8828C292.505 23.5156 293.267 22.3438 294.23 21.3672C295.207 20.3906 296.34 19.6354 297.629 19.1016C298.931 18.5547 300.318 18.2812 301.789 18.2812C302.466 18.2812 303.137 18.3659 303.801 18.5352C304.465 18.7044 305.109 18.9388 305.734 19.2383C306.359 19.5378 306.952 19.8893 307.512 20.293C308.085 20.6966 308.618 21.1328 309.113 21.6016L311.184 19.1211H312.473V40ZM307.102 29.3555C307.102 28.6263 306.958 27.9232 306.672 27.2461C306.398 26.556 306.021 25.9505 305.539 25.4297C305.057 24.8958 304.491 24.4727 303.84 24.1602C303.202 23.8346 302.518 23.6719 301.789 23.6719C301.06 23.6719 300.37 23.7956 299.719 24.043C299.081 24.2904 298.521 24.6549 298.039 25.1367C297.57 25.6185 297.199 26.2174 296.926 26.9336C296.652 27.6367 296.516 28.444 296.516 29.3555C296.516 30.2669 296.652 31.0807 296.926 31.7969C297.199 32.5 297.57 33.0924 298.039 33.5742C298.521 34.056 299.081 34.4206 299.719 34.668C300.37 34.9154 301.06 35.0391 301.789 35.0391C302.518 35.0391 303.202 34.8828 303.84 34.5703C304.491 34.2448 305.057 33.8216 305.539 33.3008C306.021 32.7669 306.398 32.1615 306.672 31.4844C306.958 30.7943 307.102 30.0846 307.102 29.3555ZM323.332 40H318V24.3945H315.402V19.082H318V18.0859C318 16.7969 318.241 15.5859 318.723 14.4531C319.217 13.3203 319.888 12.3372 320.734 11.5039C321.594 10.6576 322.59 9.99349 323.723 9.51172C324.855 9.01693 326.066 8.76953 327.355 8.76953H331.359V14.082H327.355C326.783 14.082 326.249 14.1862 325.754 14.3945C325.272 14.5898 324.849 14.8698 324.484 15.2344C324.133 15.5859 323.853 16.0091 323.645 16.5039C323.436 16.9857 323.332 17.513 323.332 18.0859V19.082H329.875V24.3945H323.332V40ZM342.902 40C341.613 40 340.402 39.7591 339.27 39.2773C338.137 38.7826 337.141 38.112 336.281 37.2656C335.435 36.4062 334.764 35.4102 334.27 34.2773C333.788 33.1445 333.547 31.9336 333.547 30.6445V24.4336H330.949V19.1211H333.547V10.7617H338.859V19.1211H346.945V24.4336H338.859V30.6445C338.859 31.2044 338.964 31.7318 339.172 32.2266C339.38 32.7083 339.667 33.1315 340.031 33.4961C340.396 33.8607 340.826 34.1536 341.32 34.375C341.815 34.5833 342.342 34.6875 342.902 34.6875H346.945V40H342.902Z" fill="#FAFAFA"/>
<path d="M147.036 67.228C147.036 65.324 147.475 63.616 148.352 62.104C149.248 60.592 150.452 59.416 151.964 58.576C153.495 57.7173 155.165 57.288 156.976 57.288C159.048 57.288 160.887 57.8013 162.492 58.828C164.116 59.836 165.292 61.2733 166.02 63.14H162.184C161.68 62.1133 160.98 61.348 160.084 60.844C159.188 60.34 158.152 60.088 156.976 60.088C155.688 60.088 154.54 60.3773 153.532 60.956C152.524 61.5347 151.731 62.3653 151.152 63.448C150.592 64.5307 150.312 65.7907 150.312 67.228C150.312 68.6653 150.592 69.9253 151.152 71.008C151.731 72.0907 152.524 72.9307 153.532 73.528C154.54 74.1067 155.688 74.396 156.976 74.396C158.152 74.396 159.188 74.144 160.084 73.64C160.98 73.136 161.68 72.3707 162.184 71.344H166.02C165.292 73.2107 164.116 74.648 162.492 75.656C160.887 76.664 159.048 77.168 156.976 77.168C155.147 77.168 153.476 76.748 151.964 75.908C150.452 75.0493 149.248 73.864 148.352 72.352C147.475 70.84 147.036 69.132 147.036 67.228ZM182.664 77L178.184 69.216H175.748V77H172.556V57.54H179.276C180.77 57.54 182.03 57.8013 183.056 58.324C184.102 58.8467 184.876 59.5467 185.38 60.424C185.903 61.3013 186.164 62.2813 186.164 63.364C186.164 64.6333 185.791 65.7907 185.044 66.836C184.316 67.8627 183.187 68.5627 181.656 68.936L186.472 77H182.664ZM175.748 66.668H179.276C180.471 66.668 181.367 66.3693 181.964 65.772C182.58 65.1747 182.888 64.372 182.888 63.364C182.888 62.356 182.59 61.572 181.992 61.012C181.395 60.4333 180.49 60.144 179.276 60.144H175.748V66.668ZM196.24 60.116V65.828H202.96V68.432H196.24V74.396H203.8V77H193.048V57.512H203.8V60.116H196.24ZM222.263 73.024H214.115L212.715 77H209.383L216.355 57.512H220.051L227.023 77H223.663L222.263 73.024ZM221.367 70.42L218.203 61.376L215.011 70.42H221.367ZM245.427 57.54V60.144H240.247V77H237.055V60.144H231.847V57.54H245.427ZM254.651 57.54V77H251.459V57.54H254.651ZM270.518 77.196C268.708 77.196 267.037 76.776 265.506 75.936C263.994 75.0773 262.79 73.892 261.894 72.38C261.017 70.8493 260.578 69.132 260.578 67.228C260.578 65.324 261.017 63.616 261.894 62.104C262.79 60.592 263.994 59.416 265.506 58.576C267.037 57.7173 268.708 57.288 270.518 57.288C272.348 57.288 274.018 57.7173 275.53 58.576C277.061 59.416 278.265 60.592 279.142 62.104C280.02 63.616 280.458 65.324 280.458 67.228C280.458 69.132 280.02 70.8493 279.142 72.38C278.265 73.892 277.061 75.0773 275.53 75.936C274.018 76.776 272.348 77.196 270.518 77.196ZM270.518 74.424C271.806 74.424 272.954 74.1347 273.962 73.556C274.97 72.9587 275.754 72.1187 276.314 71.036C276.893 69.9347 277.182 68.6653 277.182 67.228C277.182 65.7907 276.893 64.5307 276.314 63.448C275.754 62.3653 274.97 61.5347 273.962 60.956C272.954 60.3773 271.806 60.088 270.518 60.088C269.23 60.088 268.082 60.3773 267.074 60.956C266.066 61.5347 265.273 62.3653 264.694 63.448C264.134 64.5307 263.854 65.7907 263.854 67.228C263.854 68.6653 264.134 69.9347 264.694 71.036C265.273 72.1187 266.066 72.9587 267.074 73.556C268.082 74.1347 269.23 74.424 270.518 74.424ZM302.387 77H299.195L289.591 62.468V77H286.399V57.512H289.591L299.195 72.016V57.512H302.387V77ZM315.791 77.196C314.484 77.196 313.308 76.972 312.263 76.524C311.218 76.0573 310.396 75.404 309.799 74.564C309.202 73.724 308.903 72.744 308.903 71.624H312.319C312.394 72.464 312.72 73.1547 313.299 73.696C313.896 74.2373 314.727 74.508 315.791 74.508C316.892 74.508 317.751 74.2467 318.367 73.724C318.983 73.1827 319.291 72.492 319.291 71.652C319.291 70.9987 319.095 70.4667 318.703 70.056C318.33 69.6453 317.854 69.328 317.275 69.104C316.715 68.88 315.931 68.6373 314.923 68.376C313.654 68.04 312.618 67.704 311.815 67.368C311.031 67.0133 310.359 66.472 309.799 65.744C309.239 65.016 308.959 64.0453 308.959 62.832C308.959 61.712 309.239 60.732 309.799 59.892C310.359 59.052 311.143 58.408 312.151 57.96C313.159 57.512 314.326 57.288 315.651 57.288C317.536 57.288 319.076 57.764 320.271 58.716C321.484 59.6493 322.156 60.9373 322.287 62.58H318.759C318.703 61.8707 318.367 61.264 317.751 60.76C317.135 60.256 316.323 60.004 315.315 60.004C314.4 60.004 313.654 60.2373 313.075 60.704C312.496 61.1707 312.207 61.8427 312.207 62.72C312.207 63.3173 312.384 63.812 312.739 64.204C313.112 64.5773 313.579 64.876 314.139 65.1C314.699 65.324 315.464 65.5667 316.435 65.828C317.723 66.1827 318.768 66.5373 319.571 66.892C320.392 67.2467 321.083 67.7973 321.643 68.544C322.222 69.272 322.511 70.252 322.511 71.484C322.511 72.4733 322.24 73.4067 321.699 74.284C321.176 75.1613 320.402 75.8707 319.375 76.412C318.367 76.9347 317.172 77.196 315.791 77.196Z" fill="#FAFAFA"/>
</svg>
