<svg width="14" height="17" viewBox="0 0 14 17" fill="none" xmlns="http://www.w3.org/2000/svg">
<path d="M0 6.10168C0 5.38784 0.15033 4.67909 0.452699 3.97714C0.755067 3.27519 1.18727 2.62253 1.751 2.02256C2.31474 1.42259 3.05444 0.934798 3.97179 0.560879C4.88915 0.18696 5.90558 0 7.0211 0C8.8319 0 10.3181 0.55578 11.4798 1.66564C12.6414 2.7755 13.2222 4.08422 13.2222 5.59179C13.2222 7.52937 12.7302 9.13043 11.7445 10.3933C10.7589 11.6561 9.48618 12.2883 7.9265 12.2883C7.41401 12.2883 6.93227 12.1694 6.48299 11.9314C6.03371 11.6935 5.71767 11.4045 5.53488 11.0646L4.85156 13.75C4.79519 13.9659 4.72003 14.1834 4.62949 14.4044C4.53895 14.6253 4.43816 14.8378 4.33053 15.0417C4.22291 15.2457 4.11358 15.4378 4.00596 15.6196C3.89833 15.8015 3.789 15.9714 3.68138 16.1295C3.57376 16.2876 3.4798 16.4219 3.39951 16.5289C3.31922 16.636 3.24577 16.7295 3.17743 16.8094L3.07494 16.9453C3.04077 16.9912 2.99465 17.0082 2.93827 16.9963C2.8819 16.9844 2.84773 16.9504 2.83577 16.8943C2.83577 16.8825 2.82723 16.8043 2.81015 16.6564C2.79307 16.5085 2.77598 16.3539 2.7589 16.189C2.74182 16.0241 2.72473 15.8117 2.70765 15.5516C2.69057 15.2916 2.68544 15.0383 2.69057 14.7953C2.69569 14.5523 2.71278 14.282 2.74182 13.988C2.77086 13.6939 2.81357 13.422 2.86994 13.1722C2.99465 12.6402 3.41659 10.8658 4.13408 7.8523C4.04354 7.67044 3.96837 7.45289 3.912 7.19794C3.85563 6.943 3.82659 6.73564 3.82659 6.57758L3.8095 6.32263C3.8095 5.59689 3.994 4.99352 4.3647 4.51252C4.7354 4.03153 5.18127 3.79018 5.70571 3.79018C6.12766 3.79018 6.45395 3.92955 6.68798 4.20659C6.92202 4.48363 7.03819 4.83206 7.03819 5.25186C7.03819 5.51191 6.99035 5.83314 6.89298 6.21216C6.79561 6.59118 6.66748 7.02798 6.50861 7.52087C6.34974 8.01377 6.23529 8.41318 6.16695 8.71912C6.0525 9.229 6.15329 9.67091 6.46591 10.0448C6.77852 10.4187 7.19706 10.6057 7.7215 10.6057C8.62178 10.6057 9.36489 10.0992 9.95083 9.08454C10.5368 8.06986 10.8306 6.84442 10.8306 5.40483C10.8306 4.30517 10.4719 3.40776 9.75438 2.71091C9.03689 2.01406 8.03412 1.66564 6.74778 1.66564C5.31281 1.66564 4.14775 2.12454 3.25431 3.04234C2.36087 3.96014 1.91329 5.05981 1.91329 6.33963C1.91329 7.09937 2.13025 7.73843 2.56245 8.26021C2.71107 8.43018 2.75548 8.61204 2.69911 8.8041C2.6769 8.86018 2.64274 8.99106 2.59661 9.19501C2.55049 9.39897 2.51632 9.52984 2.49411 9.58593C2.47191 9.71 2.41382 9.79328 2.32328 9.83237C2.23274 9.87147 2.13025 9.86977 2.01579 9.82388C1.34443 9.55194 0.840482 9.08454 0.503948 8.42168C0.167413 7.75882 0 6.98549 0 6.10168Z" fill="#FAFAFA"/>
</svg>
